<svg width="4" height="8" viewBox="0 0 4 8" fill="none" xmlns="http://www.w3.org/2000/svg">
<path d="M3.63349 8C3.55563 8 3.47107 7.97094 3.4066 7.90608L0.512992 5.22486C0.447905 5.16743 0.383427 5.09513 0.331109 5.02282C-0.174985 4.34508 -0.0904276 3.33625 0.512992 2.77406L3.4066 0.0928477C3.55563 -0.0510781 3.78313 -0.0226987 3.91269 0.143526C4.03618 0.309075 4.01671 0.561795 3.86707 0.698278L0.973463 3.37949C0.668717 3.66059 0.623091 4.17209 0.882829 4.51131C0.908986 4.54712 0.941224 4.58361 0.973463 4.61199L3.87377 7.2932C4.0228 7.43037 4.04226 7.68241 3.91939 7.84795C3.84822 7.94188 3.7442 7.99188 3.64688 7.99188L3.63349 8Z" fill="#1C1C1C"/>
</svg>
