<svg width="13" height="12" viewBox="0 0 13 12" fill="none" xmlns="http://www.w3.org/2000/svg">
<path d="M12.1873 4.91914C12.1783 4.8588 12.1566 4.80119 12.1237 4.75031C12.0908 4.69944 12.0475 4.65651 11.9967 4.62453C11.946 4.59254 11.889 4.57227 11.8299 4.56511C11.7707 4.55796 11.7107 4.56409 11.6541 4.58309C10.9387 4.82684 10.1799 4.90781 9.43081 4.82037C8.68169 4.73293 7.96021 4.47918 7.31669 4.07682C6.67317 3.67445 6.12309 3.13316 5.70482 2.49069C5.28655 1.84822 5.01016 1.12004 4.89491 0.356924C4.88596 0.29659 4.86427 0.238979 4.83137 0.1881C4.79847 0.137221 4.75513 0.094296 4.70438 0.0623119C4.65364 0.0303277 4.59669 0.0100524 4.53752 0.00289717C4.47834 -0.00425802 4.41835 0.00187875 4.36173 0.0208801C3.45508 0.331735 2.63355 0.858824 1.96485 1.5587C0.881547 2.68935 0.268734 4.20631 0.255371 5.79033C0.255371 5.8546 0.255371 5.91635 0.255371 5.98524C0.288719 7.58083 0.926721 9.10058 2.03445 10.2231C3.14217 11.3456 4.63276 11.9828 6.19097 12H6.25577C7.80306 11.9998 9.29047 11.3875 10.4075 10.2909C11.5245 9.19437 12.1848 7.69829 12.2504 6.11503C12.2529 6.05497 12.2541 5.99322 12.2549 5.92055C12.2589 5.58542 12.2362 5.25052 12.1873 4.91914ZM11.4322 6.08059C11.3756 7.45761 10.7981 8.75804 9.82186 9.70668C8.84564 10.6553 7.54732 11.1777 6.20168 11.1633C4.85603 11.1489 3.56866 10.5988 2.61202 9.62948C1.65538 8.66014 1.10453 7.34762 1.07607 5.9697C1.07607 5.91215 1.07607 5.85502 1.07607 5.79705C1.08814 4.43079 1.61662 3.12246 2.55053 2.14678C3.01737 1.65825 3.57136 1.26597 4.18249 0.991206C4.44973 2.1131 5.01799 3.13609 5.82307 3.94461C6.92643 5.05225 8.40581 5.67914 9.95075 5.69372C10.4478 5.70006 10.9437 5.64362 11.4273 5.5257C11.4351 5.65465 11.4379 5.78403 11.4367 5.91383C11.4355 5.96801 11.4342 6.02388 11.4322 6.08059Z" fill="#1C1C1C"/>
</svg>
