<svg width="13" height="12" viewBox="0 0 13 12" fill="none" xmlns="http://www.w3.org/2000/svg">
<path d="M2.32163 7.78718L1.96058 10.0817C1.86298 10.7016 2.10735 11.3177 2.59754 11.6862C2.86467 11.8888 3.19855 12 3.53686 12C3.79077 12 4.04247 11.9376 4.26409 11.8188L6.25581 10.7542L8.24752 11.8188C8.46914 11.9376 8.72084 12 8.97622 12C9.31452 12 9.64841 11.8888 9.91553 11.6862C10.4057 11.3177 10.6479 10.7016 10.5525 10.0817L10.1914 7.78718L11.7824 6.14992C12.2124 5.70749 12.3629 5.0602 12.1772 4.46393C11.9894 3.86538 11.5028 3.43665 10.9033 3.33918L8.68858 2.98659L7.67956 0.91078C7.40731 0.349543 6.86059 0 6.25592 0C5.65125 0 5.10453 0.348782 4.83228 0.91078L3.82325 2.98659L1.60854 3.33918C1.009 3.43437 0.520991 3.86538 0.334612 4.46393C0.14675 5.06248 0.298653 5.70749 0.729423 6.14992L2.32039 7.78718H2.32163ZM1.0499 4.70524C1.1497 4.38921 1.40654 4.16151 1.72429 4.11049L4.32054 3.69546L5.50422 1.26095C5.64879 0.964722 5.93646 0.779658 6.25787 0.779658C6.57929 0.779658 6.86623 0.964707 7.01152 1.26095L8.1952 3.69546L10.7915 4.11049C11.1092 4.16151 11.3661 4.38921 11.4658 4.70524C11.5656 5.02127 11.4849 5.36395 11.2574 5.59773L9.39201 7.51829L9.8147 10.2103C9.86534 10.5378 9.73765 10.8637 9.4786 11.0587C9.33404 11.1676 9.15719 11.2247 8.98107 11.2247C8.84971 11.2247 8.71614 11.1935 8.598 11.1295L6.26287 9.87983L3.92774 11.1295C3.80959 11.1935 3.67604 11.2247 3.54467 11.2247C3.36782 11.2247 3.1917 11.1683 3.04714 11.0587C2.78809 10.8637 2.65821 10.5378 2.71103 10.2103L3.13372 7.51829L1.26831 5.59773C1.04082 5.36395 0.9601 5.02279 1.05989 4.70524H1.0499Z" fill="#1C1C1C"/>
</svg>
