<svg width="4" height="8" viewBox="0 0 4 8" fill="none" xmlns="http://www.w3.org/2000/svg">
<path d="M0.35371 7.98515C0.249653 7.98515 0.152285 7.93451 0.0810925 7.84134C-0.0424376 7.67592 -0.0229651 7.42341 0.126732 7.28704L3.02146 4.60801C3.05371 4.57898 3.08658 4.5432 3.11213 4.50741C3.36528 4.16916 3.32633 3.65738 3.02146 3.37652L0.126732 0.697491C-0.022356 0.560433 -0.0418238 0.3086 0.0810925 0.143192C0.210707 -0.022222 0.431601 -0.0512541 0.587382 0.0925544L3.48211 2.77158C4.09247 3.33331 4.17643 4.34132 3.66407 5.01851C3.60565 5.09075 3.54723 5.16232 3.47604 5.22713L0.581307 7.90615C0.516195 7.97097 0.432219 8 0.354333 8L0.35371 7.98515Z" fill="#1C1C1C"/>
</svg>
