<svg width="13" height="12" viewBox="0 0 13 12" fill="none" xmlns="http://www.w3.org/2000/svg">
<path d="M2.41427 0C1.22598 0 0.255371 0.970611 0.255371 2.1589V2.60453C0.255371 2.69493 0.291283 2.78164 0.35521 2.84557C0.419137 2.90949 0.505843 2.94541 0.59625 2.94541C0.686657 2.94541 0.773362 2.90949 0.83729 2.84557C0.901217 2.78164 0.937129 2.69493 0.937129 2.60453V2.1589C0.937129 1.33906 1.59443 0.681758 2.41427 0.681758H2.867C2.95741 0.681758 3.04411 0.645844 3.10804 0.581916C3.17197 0.517989 3.20788 0.431286 3.20788 0.340879C3.20788 0.250472 3.17197 0.163768 3.10804 0.0998413C3.04411 0.0359141 2.95741 0 2.867 0H2.41427ZM9.64374 0C9.55334 0 9.46663 0.0359141 9.4027 0.0998413C9.33878 0.163768 9.30286 0.250472 9.30286 0.340879C9.30286 0.431286 9.33878 0.517989 9.4027 0.581916C9.46663 0.645844 9.55334 0.681758 9.64374 0.681758H10.0965C10.9163 0.681758 11.5736 1.33906 11.5736 2.1589V2.60453C11.5736 2.69493 11.6095 2.78164 11.6735 2.84557C11.7374 2.90949 11.8241 2.94541 11.9145 2.94541C12.0049 2.94541 12.0916 2.90949 12.1555 2.84557C12.2195 2.78164 12.2554 2.69493 12.2554 2.60453V2.1589C12.2554 0.970611 11.2848 0 10.0965 0H9.64374ZM0.59625 9.05459C0.505843 9.05459 0.419137 9.09051 0.35521 9.15444C0.291283 9.21836 0.255371 9.30507 0.255371 9.39547V9.8411C0.255371 11.0294 1.22598 12 2.41427 12H2.867C2.95741 12 3.04411 11.9641 3.10804 11.9002C3.17197 11.8362 3.20788 11.7495 3.20788 11.6591C3.20788 11.5687 3.17197 11.482 3.10804 11.4181C3.04411 11.3542 2.95741 11.3182 2.867 11.3182H2.41427C1.59443 11.3182 0.937129 10.6609 0.937129 9.8411V9.39547C0.937129 9.30507 0.901217 9.21836 0.83729 9.15444C0.773362 9.09051 0.686657 9.05459 0.59625 9.05459ZM11.9145 9.05459C11.8241 9.05459 11.7374 9.09051 11.6735 9.15444C11.6095 9.21836 11.5736 9.30507 11.5736 9.39547V9.8411C11.5736 10.6609 10.9163 11.3182 10.0965 11.3182H9.64374C9.55334 11.3182 9.46663 11.3542 9.4027 11.4181C9.33878 11.482 9.30286 11.5687 9.30286 11.6591C9.30286 11.7495 9.33878 11.8362 9.4027 11.9002C9.46663 11.9641 9.55334 12 9.64374 12H10.0965C11.2848 12 12.2554 11.0294 12.2554 9.8411V9.39547C12.2554 9.30507 12.2195 9.21836 12.1555 9.15444C12.0916 9.09051 12.0049 9.05459 11.9145 9.05459Z" fill="#1C1C1C"/>
<path d="M6.25539 3.98315C5.14563 3.98315 4.23853 4.89026 4.23853 6.00002C4.23853 7.10978 5.14563 8.01689 6.25539 8.01689C7.36516 8.01689 8.27226 7.10978 8.27226 6.00002C8.27226 4.89026 7.36516 3.98315 6.25539 3.98315ZM6.25539 4.66491C6.99671 4.66491 7.5905 5.25871 7.5905 6.00002C7.5905 6.74134 6.99671 7.33513 6.25539 7.33513C5.51408 7.33513 4.92028 6.74134 4.92028 6.00002C4.92028 5.25871 5.51408 4.66491 6.25539 4.66491Z" fill="#1C1C1C"/>
</svg>
