<svg width="12" height="12" viewBox="0 0 12 12" fill="none" xmlns="http://www.w3.org/2000/svg">
<path d="M9.11433 6.03368C9.11883 5.6246 9.04269 5.21865 8.89026 4.839C8.73784 4.45936 8.51212 4.11346 8.22599 3.82106C7.93986 3.52867 7.59893 3.29551 7.22267 3.1349C6.84642 2.97429 6.4422 2.88937 6.03313 2.88501H5.99846C5.17833 2.88521 4.39137 3.20887 3.80842 3.78575C3.22547 4.36262 2.89357 5.14613 2.88477 5.96622C2.88477 5.99901 2.88477 6.0315 2.88477 6.06492C2.89969 6.88133 3.23646 7.65881 3.82178 8.22816L4.04041 8.00484L3.82178 8.22848C4.39533 8.79036 5.16433 9.10808 5.96722 9.11489H6.00158C6.79194 9.11615 7.55297 8.81563 8.12922 8.2747L7.9159 8.0467L8.12953 8.2747C8.72718 7.7179 9.08078 6.94762 9.1134 6.13144C9.11308 6.09896 9.11402 6.06648 9.11433 6.03368ZM8.48779 6.10614C8.46134 6.75834 8.1786 7.37376 7.70101 7.81869C7.23257 8.25642 6.61341 8.4967 5.97233 8.48954C5.33124 8.48239 4.7176 8.22835 4.25905 7.78027C3.79131 7.32531 3.52194 6.70419 3.50944 6.0518C3.50944 6.02494 3.50944 5.9987 3.50944 5.97184C3.51676 5.31645 3.78219 4.69038 4.24815 4.22945C4.71412 3.76851 5.34303 3.50989 5.99846 3.50968H6.02626C6.3533 3.51315 6.67646 3.58102 6.97727 3.7094C7.27808 3.83779 7.55065 4.02418 7.77941 4.25793C8.00817 4.49168 8.18863 4.7682 8.3105 5.07171C8.43237 5.37522 8.49325 5.69977 8.48966 6.02681C8.48935 6.05336 8.48872 6.07991 8.48779 6.10614Z" fill="black"/>
<path d="M5.96001 9.64685H5.95657C5.87433 9.64685 5.7954 9.67928 5.73692 9.73711C5.67845 9.79495 5.64514 9.87351 5.64424 9.95575L5.62581 11.6845C5.62498 11.7673 5.65704 11.8471 5.71497 11.9062C5.77289 11.9654 5.85193 11.9991 5.93471 12H5.93815C6.02039 12 6.09932 11.9676 6.1578 11.9097C6.21627 11.8519 6.24958 11.7733 6.25048 11.6911L6.26891 9.96387C6.26953 9.92275 6.26202 9.88191 6.24682 9.8437C6.23161 9.80549 6.20901 9.77065 6.18031 9.7412C6.15161 9.71174 6.11738 9.68824 6.07957 9.67205C6.04176 9.65586 6.00113 9.6473 5.96001 9.64685Z" fill="black"/>
<path d="M6.03873 2.35315H6.04217C6.12442 2.35315 6.20334 2.32072 6.26182 2.26289C6.3203 2.20505 6.3536 2.12649 6.35451 2.04425L6.37325 0.315461C6.37408 0.232676 6.34201 0.152947 6.28409 0.0937949C6.22617 0.0346426 6.14713 0.000906489 6.06435 5.72459e-10H6.06091C5.97867 -4.97541e-06 5.89974 0.0324297 5.84126 0.0902633C5.78278 0.148097 5.74948 0.226661 5.74857 0.308902L5.72983 2.03613C5.72921 2.07725 5.73672 2.11809 5.75193 2.1563C5.76713 2.19451 5.78973 2.22935 5.81843 2.2588C5.84713 2.28826 5.88137 2.31176 5.91917 2.32795C5.95698 2.34414 5.99761 2.3527 6.03873 2.35315Z" fill="black"/>
<path d="M2.04082 6.35856C2.12365 6.35898 2.20326 6.32647 2.26213 6.26818C2.321 6.2099 2.3543 6.13062 2.35472 6.04778C2.35513 5.96495 2.32262 5.88534 2.26434 5.82647C2.20606 5.7676 2.12678 5.7343 2.04394 5.73389L0.316089 5.71546H0.313903C0.231066 5.71504 0.151457 5.74755 0.0925895 5.80584C0.0337221 5.86412 0.000418095 5.9434 3.90966e-06 6.02623C-0.000410275 6.10907 0.0320993 6.18868 0.090381 6.24755C0.148663 6.30641 0.227943 6.33972 0.31078 6.34013L2.03863 6.35887L2.04082 6.35856Z" fill="black"/>
<path d="M11.6873 5.83789L9.95949 5.81946H9.95605C9.91504 5.81926 9.87438 5.82713 9.83641 5.84264C9.79844 5.85815 9.76389 5.88098 9.73474 5.90984C9.67587 5.96812 9.64257 6.0474 9.64215 6.13024C9.64174 6.21307 9.67425 6.29268 9.73253 6.35155C9.79081 6.41042 9.87009 6.44372 9.95293 6.44414L11.6808 6.46288H11.683C11.7658 6.46329 11.8454 6.43078 11.9043 6.3725C11.9631 6.31422 11.9965 6.23494 11.9969 6.1521C11.9973 6.06926 11.9648 5.98966 11.9065 5.93079C11.8482 5.87192 11.7689 5.83862 11.6861 5.8382L11.6873 5.83789Z" fill="black"/>
<path d="M8.87194 3.58849C8.95365 3.58857 9.03215 3.55661 9.09057 3.49948L10.3256 2.29073C10.3549 2.26202 10.3783 2.22781 10.3944 2.19006C10.4105 2.15232 10.419 2.11176 10.4194 2.07072C10.4199 2.02968 10.4122 1.98896 10.3969 1.95088C10.3816 1.9128 10.359 1.8781 10.3302 1.84878C10.3015 1.81945 10.2673 1.79606 10.2296 1.77996C10.1918 1.76385 10.1513 1.75534 10.1102 1.7549C10.0692 1.75447 10.0285 1.76212 9.99039 1.77742C9.9523 1.79272 9.91761 1.81538 9.88828 1.84409L8.6533 3.05284C8.6089 3.09625 8.57845 3.15191 8.56584 3.21271C8.55322 3.27351 8.55902 3.3367 8.58249 3.39419C8.60595 3.45168 8.64602 3.50087 8.69758 3.53548C8.74914 3.57009 8.80984 3.58855 8.87194 3.58849Z" fill="black"/>
<path d="M2.99562 8.59047L1.76064 9.79922C1.70141 9.8572 1.66764 9.93634 1.66677 10.0192C1.66589 10.1021 1.69797 10.1819 1.75596 10.2412C1.81394 10.3004 1.89308 10.3342 1.97596 10.3351C2.05885 10.3359 2.13868 10.3038 2.19791 10.2459L3.43289 9.0368C3.4622 9.00809 3.48557 8.97389 3.50165 8.93615C3.51774 8.89841 3.52624 8.85787 3.52666 8.81684C3.52708 8.77582 3.51942 8.73511 3.5041 8.69705C3.48879 8.65898 3.46614 8.62431 3.43742 8.595C3.40871 8.56569 3.37451 8.54233 3.33677 8.52624C3.29903 8.51015 3.25849 8.50166 3.21746 8.50124C3.17644 8.50082 3.13573 8.50848 3.09767 8.52379C3.0596 8.5391 3.02493 8.56176 2.99562 8.59047Z" fill="black"/>
<path d="M2.9622 3.43326C3.02018 3.49249 3.09932 3.52626 3.18221 3.52714C3.26509 3.52801 3.34493 3.49593 3.40416 3.43795C3.46338 3.37996 3.49715 3.30082 3.49803 3.21794C3.49891 3.13505 3.46683 3.05522 3.40884 2.99599L2.2001 1.76101C2.14211 1.70178 2.06297 1.66801 1.98009 1.66713C1.8972 1.66625 1.81737 1.69834 1.75814 1.75632C1.69891 1.81431 1.66514 1.89345 1.66426 1.97633C1.66338 2.05921 1.69547 2.13905 1.75345 2.19828L2.9622 3.43326Z" fill="black"/>
<path d="M8.94662 8.65493C8.88863 8.5957 8.80949 8.56193 8.72661 8.56105C8.64373 8.56017 8.56389 8.59226 8.50466 8.65024C8.44543 8.70823 8.41166 8.78737 8.41078 8.87025C8.40991 8.95313 8.44199 9.03297 8.49997 9.0922L9.70903 10.3275C9.76702 10.3867 9.84614 10.4204 9.92899 10.4213C10.0118 10.4221 10.0916 10.39 10.1508 10.332C10.21 10.274 10.2437 10.1949 10.2446 10.1121C10.2454 10.0292 10.2133 9.94941 10.1554 9.89022L8.94662 8.65493Z" fill="black"/>
</svg>
